<svg xmlns="http://www.w3.org/2000/svg" version="1.1" xmlns:xlink="http://www.w3.org/1999/xlink" viewBox="0 0 200 200"><rect width="200" height="200" fill="url('#gradient')"></rect><defs><linearGradient id="gradient" gradientTransform="rotate(51 0.5 0.5)"><stop offset="0%" stop-color="#a82f2f"></stop><stop offset="100%" stop-color="#4d2fa8"></stop></linearGradient></defs><g><g fill="#ffffff" transform="matrix(1.223258491652274,0,0,1.223258491652274,16.23469633338228,108.69562648098977)" stroke="#1b3855" stroke-width="0.8"><path d="M8.41-3.78L8.41-3.78Q8.41-4.53 7.88-4.95Q7.34-5.37 6.01-5.82Q4.67-6.27 3.82-6.69L3.82-6.69Q1.05-8.05 1.05-10.42L1.05-10.42Q1.05-11.60 1.74-12.50Q2.43-13.41 3.69-13.91Q4.95-14.41 6.52-14.41L6.52-14.41Q8.06-14.41 9.27-13.87Q10.49-13.32 11.16-12.31Q11.84-11.30 11.84-10L11.84-10L8.42-10Q8.42-10.87 7.89-11.35Q7.35-11.83 6.45-11.83L6.45-11.83Q5.53-11.83 5.00-11.42Q4.46-11.02 4.46-10.39L4.46-10.39Q4.46-9.84 5.05-9.40Q5.63-8.96 7.11-8.48Q8.58-8.01 9.53-7.46L9.53-7.46Q11.84-6.13 11.84-3.80L11.84-3.80Q11.84-1.93 10.43-0.87Q9.02 0.20 6.57 0.20L6.57 0.20Q4.84 0.20 3.44-0.42Q2.04-1.04 1.33-2.12Q0.63-3.20 0.63-4.61L0.63-4.61L4.06-4.61Q4.06-3.47 4.65-2.92Q5.24-2.38 6.57-2.38L6.57-2.38Q7.42-2.38 7.92-2.75Q8.41-3.12 8.41-3.78ZM24.76-14.22L24.76-11.57L20.49-11.57L20.49 0L17.06 0L17.06-11.57L12.87-11.57L12.87-14.22L24.76-14.22ZM33.99 0L31.48-5.02L29.63-5.02L29.63 0L26.20 0L26.20-14.22L31.80-14.22Q34.33-14.22 35.75-13.10Q37.18-11.97 37.18-9.92L37.18-9.92Q37.18-8.44 36.58-7.46Q35.98-6.48 34.70-5.88L34.70-5.88L37.67-0.15L37.67 0L33.99 0ZM29.63-11.57L29.63-7.67L31.80-7.67Q32.77-7.67 33.27-8.18Q33.76-8.69 33.76-9.61Q33.76-10.53 33.26-11.05Q32.76-11.57 31.80-11.57L31.80-11.57L29.63-11.57ZM48.07-8.57L48.07-6.03L42.68-6.03L42.68-2.64L49.04-2.64L49.04 0L39.25 0L39.25-14.22L49.06-14.22L49.06-11.57L42.68-11.57L42.68-8.57L48.07-8.57ZM59.26-8.57L59.26-6.03L53.87-6.03L53.87-2.64L60.23-2.64L60.23 0L50.44 0L50.44-14.22L60.25-14.22L60.25-11.57L53.87-11.57L53.87-8.57L59.26-8.57ZM72.99-14.22L72.99-11.57L68.72-11.57L68.72 0L65.29 0L65.29-11.57L61.10-11.57L61.10-14.22L72.99-14.22ZM82.23 0L79.72-5.02L77.86-5.02L77.86 0L74.43 0L74.43-14.22L80.03-14.22Q82.56-14.22 83.98-13.10Q85.41-11.97 85.41-9.92L85.41-9.92Q85.41-8.44 84.81-7.46Q84.21-6.48 82.93-5.88L82.93-5.88L85.90-0.15L85.90 0L82.23 0ZM77.86-11.57L77.86-7.67L80.03-7.67Q81.01-7.67 81.50-8.18Q81.99-8.69 81.99-9.61Q81.99-10.53 81.49-11.05Q81.00-11.57 80.03-11.57L80.03-11.57L77.86-11.57ZM96.30-8.57L96.30-6.03L90.91-6.03L90.91-2.64L97.28-2.64L97.28 0L87.48 0L87.48-14.22L97.29-14.22L97.29-11.57L90.91-11.57L90.91-8.57L96.30-8.57ZM107.58 0L106.75-2.66L102.05-2.66L101.23 0L97.57 0L102.78-14.22L106.01-14.22L111.26 0L107.58 0ZM104.39-10.23L102.87-5.30L105.93-5.30L104.39-10.23ZM116.97 0L112.29 0L112.29-14.22L116.88-14.22Q118.76-14.22 120.26-13.36Q121.77-12.51 122.61-10.95Q123.46-9.39 123.47-7.46L123.47-7.46L123.47-6.81Q123.47-4.85 122.64-3.31Q121.82-1.76 120.32-0.88Q118.82-0.01 116.97 0L116.97 0ZM116.88-11.57L115.72-11.57L115.72-2.64L116.91-2.64Q118.39-2.64 119.18-3.69Q119.97-4.74 119.97-6.81L119.97-6.81L119.97-7.42Q119.97-9.48 119.18-10.53Q118.39-11.57 116.88-11.57L116.88-11.57ZM127.38-14.22L130.01-8.05L132.63-14.22L136.33-14.22L131.75-5.11L131.75 0L128.27 0L128.27-5.11L123.70-14.22L127.38-14.22Z"></path></g></g></svg>